<svg xmlns="http://www.w3.org/2000/svg" viewBox="0 0 200 200">
  <defs>
    <radialGradient id="bodyGrad" cx="40%" cy="35%" r="65%">
      <stop offset="0%" stop-color="#fde68a"/>
      <stop offset="100%" stop-color="#ea580c"/>
    </radialGradient>
    <linearGradient id="flameGrad" x1="0%" y1="100%" x2="0%" y2="0%">
      <stop offset="0%" stop-color="#ef4444"/>
      <stop offset="50%" stop-color="#f97316"/>
      <stop offset="100%" stop-color="#fde047"/>
    </linearGradient>
  </defs>
  <!-- flame tail -->
  <path d="M118,148 Q148,130 158,104 Q145,108 140,122 Q142,100 126,110" fill="none" stroke="#f97316" stroke-width="6" stroke-linecap="round"/>
  <path d="M122,142 Q152,126 162,100" fill="none" stroke="#fde047" stroke-width="3" stroke-linecap="round" opacity="0.7"/>
  <!-- flame feet -->
  <path d="M82,170 Q78,160 84,155 Q88,162 92,155 Q96,162 92,170 Z" fill="url(#flameGrad)"/>
  <path d="M108,170 Q104,160 110,155 Q114,162 118,155 Q122,162 118,170 Z" fill="url(#flameGrad)"/>
  <!-- body -->
  <ellipse cx="100" cy="128" rx="36" ry="36" fill="url(#bodyGrad)"/>
  <!-- breast feathers -->
  <ellipse cx="100" cy="132" rx="20" ry="22" fill="#fef9c3" opacity="0.85"/>
  <!-- wing left - large flame wing -->
  <path d="M64,100 Q28,60 22,100 Q36,88 42,104 Q26,116 30,138 Q44,122 56,132 Q44,148 50,162 Q62,144 64,152 Z" fill="#ea580c"/>
  <path d="M30,100 Q42,90 50,102" fill="none" stroke="#fde047" stroke-width="1.5"/>
  <path d="M28,114 Q40,106 50,116" fill="none" stroke="#fde047" stroke-width="1.5"/>
  <path d="M30,128 Q42,122 52,130" fill="none" stroke="#fde047" stroke-width="1.5"/>
  <!-- wing right -->
  <path d="M136,100 Q172,60 178,100 Q164,88 158,104 Q174,116 170,138 Q156,122 144,132 Q156,148 150,162 Q138,144 136,152 Z" fill="#ea580c"/>
  <path d="M170,100 Q158,90 150,102" fill="none" stroke="#fde047" stroke-width="1.5"/>
  <path d="M172,114 Q160,106 150,116" fill="none" stroke="#fde047" stroke-width="1.5"/>
  <path d="M170,128 Q158,122 148,130" fill="none" stroke="#fde047" stroke-width="1.5"/>
  <!-- neck -->
  <rect x="88" y="85" width="24" height="30" rx="12" fill="#f97316"/>
  <!-- head -->
  <circle cx="100" cy="72" r="26" fill="#fb923c"/>
  <!-- flame crest -->
  <path d="M82,56 Q88,38 94,50 Q98,34 100,46 Q102,30 108,46 Q114,36 118,54 Q108,44 100,52 Q94,42 82,56 Z" fill="url(#flameGrad)"/>
  <!-- beak -->
  <path d="M94,82 L112,78 L102,92 Z" fill="#fbbf24"/>
  <!-- eyes -->
  <circle cx="87" cy="68" r="8" fill="#1c1917"/>
  <circle cx="113" cy="68" r="8" fill="#1c1917"/>
  <circle cx="89" cy="66" r="3.5" fill="#fde047"/>
  <circle cx="115" cy="66" r="3.5" fill="#fde047"/>
  <circle cx="90" cy="67" r="2" fill="white"/>
  <circle cx="116" cy="67" r="2" fill="white"/>
</svg>
